<?xml version="1.0" encoding="UTF-8"?>
<svg width="512" height="512" viewBox="0 0 512 512" xmlns="http://www.w3.org/2000/svg" role="img" aria-label="Dragon head logo (translucent)">
  <defs>
    <linearGradient id="flameT" x1="0" y1="0" x2="1" y2="1">
      <stop offset="0%" stop-color="#EA580C" stop-opacity="0.5"/>
      <stop offset="50%" stop-color="#DB2777" stop-opacity="0.5"/>
      <stop offset="100%" stop-color="#7C3AED" stop-opacity="0.5"/>
    </linearGradient>
  </defs>
  <rect width="512" height="512" rx="96" fill="none"/>
  <g transform="translate(90,80)" opacity="0.5">
    <path fill="url(#flameT)"
      d="M120 36
         c 24 -32 62 -36 92 -8
         c 10 10 18 22 22 36
         l 28 -18
         c 6 -4 14 2 12 9 l -8 28
         l 26 -10 c 7 -3 14 6 9 12 l -18 24
         c 22 38 18 84 -10 120
         c -30 40 -86 68 -142 68
         c -34 0 -62 -10 -82 -28
         c -10 -9 -16 -20 -14 -30
         c 2 -11 11 -20 28 -27
         c -14 -22 -18 -46 -12 -72
         c 6 -26 22 -50 46 -66
         l 12 -8 l -10 -14
         c -5 -7 4 -15 11 -10
         l 20 14
         c 6 -6 12 -12 18 -22 z"/>
    <circle cx="230" cy="132" r="8" fill="#FDE68A" opacity="0.6"/>
    <path d="M206 206 l 8 22 l 10 -18" fill="none" stroke="#F8FAFC" stroke-width="3" stroke-linecap="round" opacity="0.6"/>
  </g>
</svg>